# File created by Blade
# Date/Time:  Wed Jan 21 16:09:38 2015
# Frame Rate: 120.000 fps
#------------------------------------------------------
:FULLY-SPECIFIED
:DEGREES
868
root 19.903516 35.059196 -23.272499 -176.576631 1.169855 -176.859164
Spine -13.651498 0.866631 3.680639
Head 8.604879 -2.695173 -1.474458
LeftShoulder -15.100377 -33.273605 17.522820
LeftArm 8.969868 7.948478 -11.945780
LeftForeArm 10.528267 -0.000000 -2.505269
LeftHand -8.599695 -0.000000 -2.249875
LeftHandThumb1 -26.253704 0.000000 33.147579
RightShoulder -12.689180 -3.843544 -10.183545
RightArm 11.601323 41.456219 16.828718
RightForeArm -32.466419 0.000000 4.164077
RightHand -10.706599 -0.000000 2.668272
RightHandThumb1 -24.326973 -0.000000 -32.862282
LeftUpLeg 6.943453 1.305289 9.263234
LeftLeg -12.461709 -0.000000 0.000000
LeftFoot -0.843267 22.103984 10.084741
LeftToeBase -139.298762 -0.000000 0.000000
RightUpLeg 5.569592 -8.040032 -2.260943
RightLeg -3.901878 -0.000000 0.000000
RightFoot -21.034982 -19.999403 17.788458
RightToeBase 24.949326 -0.000000 -0.000000
869
root 19.905222 35.055044 -23.288126 -176.659220 1.120794 -176.858626
Spine -13.565500 0.809600 3.692379
Head 8.564205 -2.698546 -1.428545
LeftShoulder -15.089124 -33.314591 17.537114
LeftArm 8.904920 7.937066 -11.958291
LeftForeArm 10.497516 0.000000 -2.505907
LeftHand -8.624128 -0.000000 -2.338988
LeftHandThumb1 -26.253704 0.000000 33.147579
RightShoulder -12.686644 -3.824225 -10.169350
RightArm 11.627808 41.471125 16.895009
RightForeArm -32.517311 -0.000000 4.143255
RightHand -10.766707 0.000000 2.705789
RightHandThumb1 -24.326973 -0.000000 -32.862282
LeftUpLeg 7.061389 1.216316 9.270244
LeftLeg -12.504695 -0.000000 0.000000
LeftFoot -0.845223 22.142630 10.103424
LeftToeBase -139.255622 -0.000000 0.000000
RightUpLeg 5.729021 -7.999593 -2.264682
RightLeg -3.986198 -0.000000 0.000000
RightFoot -21.068747 -20.147972 17.671048
RightToeBase 25.147344 -0.000000 -0.000000
870
root 19.904477 35.050969 -23.304335 -176.733942 1.075955 -176.861355
Spine -13.491757 0.755278 3.703699
Head 8.508408 -2.705832 -1.369715
LeftShoulder -15.096934 -33.304916 17.539128
LeftArm 8.896210 7.897207 -11.965663
LeftForeArm 10.472678 -0.000000 -2.528973
LeftHand -8.666102 -0.000000 -2.481010
LeftHandThumb1 -26.253704 0.000000 33.147579
RightShoulder -12.684249 -3.853780 -10.140969
RightArm 11.676731 41.483022 16.952994
RightForeArm -32.491760 -0.000000 4.110845
RightHand -10.774049 0.000000 2.680501
RightHandThumb1 -24.326973 -0.000000 -32.862282
LeftUpLeg 7.170718 1.128297 9.270242
LeftLeg -12.542255 -0.000000 0.000000
LeftFoot -0.837674 22.183446 10.123046
LeftToeBase -139.189609 -0.000000 0.000000
RightUpLeg 5.848745 -8.059791 -2.285394
RightLeg -4.002496 -0.000000 0.000000
RightFoot -21.087647 -20.129073 17.611075
RightToeBase 25.186446 -0.000000 -0.000000
871
root 19.902098 35.047049 -23.320834 -176.805186 1.031286 -176.865017
Spine -13.427782 0.710480 3.716049
Head 8.490814 -2.703640 -1.343853
LeftShoulder -15.082559 -33.316440 17.534189
LeftArm 8.863550 7.890314 -11.970462
LeftForeArm 10.452081 -0.000000 -2.535602
LeftHand -8.684843 -0.000000 -2.563952
LeftHandThumb1 -26.253704 0.000000 33.147579
RightShoulder -12.688439 -3.880274 -10.117808
RightArm 11.707016 41.461704 16.990737
RightForeArm -32.451513 -0.000000 4.101911
RightHand -10.731254 0.000000 2.677658
RightHandThumb1 -24.326973 -0.000000 -32.862282
LeftUpLeg 7.279547 1.055147 9.265771
LeftLeg -12.582321 -0.000000 0.000000
LeftFoot -0.845679 22.196138 10.163351
LeftToeBase -139.133166 -0.000000 0.000000
RightUpLeg 5.956871 -8.192205 -2.308664
RightLeg -4.008288 -0.000000 0.000000
RightFoot -21.070037 -20.024605 17.679461
RightToeBase 25.173110 -0.000000 -0.000000
872
root 19.896906 35.043137 -23.336411 -176.863318 0.995696 -176.875609
Spine -13.373942 0.668425 3.726994
Head 8.459279 -2.694200 -1.310719
LeftShoulder -15.081657 -33.346151 17.543276
LeftArm 8.816141 7.909857 -11.980740
LeftForeArm 10.409808 -0.000000 -2.526237
LeftHand -8.686602 -0.000000 -2.623392
LeftHandThumb1 -26.253704 0.000000 33.147579
RightShoulder -12.686931 -3.906283 -10.100110
RightArm 11.739054 41.439058 17.036097
RightForeArm -32.542267 -0.000000 4.119452
RightHand -10.779093 -0.000000 2.659723
RightHandThumb1 -24.326973 -0.000000 -32.862282
LeftUpLeg 7.379552 1.016495 9.246910
LeftLeg -12.637034 -0.000000 0.000000
LeftFoot -0.843484 22.213090 10.162249
LeftToeBase -139.128553 -0.000000 0.000000
RightUpLeg 6.028116 -8.375613 -2.341550
RightLeg -3.976661 -0.000000 0.000000
RightFoot -21.086218 -19.946328 17.607608
RightToeBase 24.948997 -0.000000 -0.000000
873
root 19.892190 35.039166 -23.350730 -176.911110 0.970671 -176.877889
Spine -13.326186 0.648312 3.738365
Head 8.423077 -2.697646 -1.267617
LeftShoulder -15.091172 -33.281639 17.531102
LeftArm 8.845110 7.829777 -11.997385
LeftForeArm 10.365193 -0.000000 -2.527566
LeftHand -8.716145 -0.000000 -2.647129
LeftHandThumb1 -26.253704 0.000000 33.147579
RightShoulder -12.673454 -3.915788 -10.092476
RightArm 11.713997 41.394946 17.055602
RightForeArm -32.583918 0.000000 4.141624
RightHand -10.823830 0.000000 2.631429
RightHandThumb1 -24.326973 -0.000000 -32.862282
LeftUpLeg 7.465882 1.008764 9.238032
LeftLeg -12.685807 -0.000000 0.000000
LeftFoot -0.843398 22.220952 10.198469
LeftToeBase -139.133186 -0.000000 0.000000
RightUpLeg 6.107588 -8.451454 -2.370959
RightLeg -3.979075 -0.000000 0.000000
RightFoot -21.100090 -19.921461 17.437156
RightToeBase 25.266744 -0.000000 -0.000000
